<?xml version="1.0" encoding="UTF-8"?>
<svg width="15px" height="16px" viewBox="0 0 15 16" version="1.1" xmlns="http://www.w3.org/2000/svg" xmlns:xlink="http://www.w3.org/1999/xlink">
    <!-- Generator: Sketch 47.1 (45422) - http://www.bohemiancoding.com/sketch -->
    <title>home</title>
    <desc>Created with Sketch.</desc>
    <defs></defs>
    <g id="Symbols" stroke="none" stroke-width="1" fill="none" fill-rule="evenodd">
        <g id="nav/link/active" transform="translate(0.000000, -3.000000)" fill="#464855">
            <g id="Menu">
                <g id="Item.2">
                    <g id="Stacked-Group">
                        <path d="M10.2640219,19 L12.1379351,19 C12.7001091,19 13.125,18.5981162 13.125,17.9952904 L13.125,11 L14.0118483,11 C14.2929353,10.9623234 14.5740223,10.8618524 14.7614136,10.6609105 C15.1361962,10.2590267 15.0425006,9.65620094 14.6677179,9.25431711 L8.10902178,3.22605965 C7.73423915,2.92464678 7.26576085,2.92464678 6.89097822,3.22605965 L0.332282081,9.25431711 C-0.0425005554,9.65620094 -0.136196214,10.2590267 0.238586422,10.6609105 C0.332282081,10.8618524 0.656413023,11 0.9375,11 C1.12489132,11 1.875,11 1.875,11 L1.875,17.9952904 C1.875,18.5981162 2.20619526,19 2.76836922,19 L4.6422824,19 C5.20445635,19 5.625,18.5981162 5.625,17.9952904 L5.625,14.9811617 L9.375,15 L9.375,17.9952904 C9.375,18.5981162 9.70184799,19 10.2640219,19 Z" id="home"></path>
                    </g>
                </g>
            </g>
        </g>
    </g>
</svg>