<?xml version="1.0" encoding="UTF-8"?>
<svg width="184px" height="25px" viewBox="0 0 184 25" version="1.1" xmlns="http://www.w3.org/2000/svg" xmlns:xlink="http://www.w3.org/1999/xlink">
    <!-- Generator: Sketch 47.1 (45422) - http://www.bohemiancoding.com/sketch -->
    <title>logo</title>
    <desc>Created with Sketch.</desc>
    <defs></defs>
    <g id="Symbols" stroke="none" stroke-width="1" fill="none" fill-rule="evenodd">
        <g id="Logo-1" transform="translate(-1.000000, 0.000000)">
            <g id="logo">
                <g id="Group">
                    <path d="M14.85,10.03 C14.9900007,10.1833341 15.06,10.3866654 15.06,10.64 L15.06,23.3 C15.06,23.5400012 14.993334,23.7333326 14.86,23.88 C14.726666,24.0266674 14.5400012,24.1 14.3,24.1 C14.0599988,24.1 13.8800006,24.0266674 13.76,23.88 C13.6399994,23.7333326 13.58,23.5400012 13.58,23.3 L13.58,13.08 L9.24,21.4 C9.0533324,21.7866686 8.7800018,21.98 8.42,21.98 C8.0733316,21.98 7.800001,21.7866686 7.6,21.4 L3.24,13.18 L3.24,23.3 C3.24,23.5400012 3.1766673,23.7333326 3.05,23.88 C2.9233327,24.0266674 2.7400012,24.1 2.5,24.1 C2.2599988,24.1 2.073334,24.0266674 1.94,23.88 C1.806666,23.7333326 1.74,23.5400012 1.74,23.3 L1.74,10.64 C1.74,10.3866654 1.8133326,10.1833341 1.96,10.03 C2.1066674,9.8766659 2.3066654,9.8 2.56,9.8 C2.893335,9.8 3.159999,9.9933314 3.36,10.38 L8.44,20.12 L13.46,10.38 C13.5666672,10.1666656 13.6833327,10.0166671 13.81,9.93 C13.9366673,9.8433329 14.0866658,9.8 14.26,9.8 C14.5133346,9.8 14.7099993,9.8766659 14.85,10.03 Z M23.5163637,22.72 C22.5696923,21.7599952 22.0963637,20.346676 22.0963637,18.48 L22.0963637,10.64 C22.0963637,10.3866654 22.1696963,10.1833341 22.3163637,10.03 C22.4630311,9.8766659 22.6630291,9.8 22.9163637,9.8 C23.1563649,9.8 23.3496963,9.8766659 23.4963637,10.03 C23.6430311,10.1833341 23.7163637,10.3866654 23.7163637,10.64 L23.7163637,18.62 C23.7163637,19.9933402 24.053027,21.0266632 24.7263637,21.72 C25.3997004,22.4133368 26.3896905,22.76 27.6963637,22.76 C29.0030369,22.76 29.9896937,22.4133368 30.6563637,21.72 C31.3230337,21.0266632 31.6563637,19.9933402 31.6563637,18.62 L31.6563637,10.64 C31.6563637,10.3866654 31.7330296,10.1833341 31.8863637,10.03 C32.0396978,9.8766659 32.2363625,9.8 32.4763637,9.8 C32.7296983,9.8 32.9296963,9.8766659 33.0763637,10.03 C33.2230311,10.1833341 33.2963637,10.3866654 33.2963637,10.64 L33.2963637,18.48 C33.2963637,20.3333426 32.8197018,21.7433285 31.8663637,22.71 C30.9130256,23.6766715 29.5230395,24.16 27.6963637,24.16 C25.8563545,24.16 24.4630351,23.6800048 23.5163637,22.72 Z M41.9427275,23.71 C41.0293896,23.4099985 40.2993969,23.0066692 39.7527275,22.5 C39.5527265,22.3133324 39.4527275,22.0800014 39.4527275,21.8 C39.4527275,21.6133324 39.5060603,21.4500007 39.6127275,21.31 C39.7193947,21.1699993 39.8460601,21.1 39.9927275,21.1 C40.1660617,21.1 40.3527265,21.1733326 40.5527275,21.32 C41.7927337,22.2800048 43.2060529,22.76 44.7927275,22.76 C45.9393999,22.76 46.8193911,22.5400022 47.4327275,22.1 C48.0460639,21.6599978 48.3527275,21.0333374 48.3527275,20.22 C48.3527275,19.753331 48.2060623,19.3766681 47.9127275,19.09 C47.6193927,18.8033319 47.2327299,18.5733342 46.7527275,18.4 C46.2727251,18.2266658 45.6260649,18.0466676 44.8127275,17.86 C43.7193887,17.6066654 42.822731,17.3400014 42.1227275,17.06 C41.422724,16.7799986 40.856063,16.3800026 40.4227275,15.86 C39.989392,15.3399974 39.7727275,14.6600042 39.7727275,13.82 C39.7727275,13.019996 39.989392,12.3100031 40.4227275,11.69 C40.856063,11.0699969 41.4627236,10.5900017 42.2427275,10.25 C43.0227314,9.9099983 43.9127225,9.74 44.9127275,9.74 C45.8460655,9.74 46.7160568,9.8833319 47.5227275,10.17 C48.3293982,10.4566681 49.0060581,10.866664 49.5527275,11.4 C49.7660619,11.6133344 49.8727275,11.8466654 49.8727275,12.1 C49.8727275,12.2866676 49.8193947,12.4499993 49.7127275,12.59 C49.6060603,12.7300007 49.4793949,12.8 49.3327275,12.8 C49.1860601,12.8 48.9927287,12.7266674 48.7527275,12.58 C48.0993909,12.046664 47.4927303,11.6733344 46.9327275,11.46 C46.3727247,11.2466656 45.6993981,11.14 44.9127275,11.14 C43.8060553,11.14 42.9460639,11.3699977 42.3327275,11.83 C41.7193911,12.2900023 41.4127275,12.9333292 41.4127275,13.76 C41.4127275,14.4666702 41.6827248,14.9966649 42.2227275,15.35 C42.7627302,15.7033351 43.5927219,16.013332 44.7127275,16.28 C45.9260669,16.5733348 46.8793907,16.8433321 47.5727275,17.09 C48.2660643,17.3366679 48.8427252,17.7066642 49.3027275,18.2 C49.7627298,18.6933358 49.9927275,19.3533292 49.9927275,20.18 C49.9927275,20.9666706 49.776063,21.659997 49.3427275,22.26 C48.909392,22.860003 48.2993981,23.326665 47.5127275,23.66 C46.7260569,23.993335 45.8260659,24.16 44.8127275,24.16 C43.8127225,24.16 42.8560654,24.0100015 41.9427275,23.71 Z M56.5090912,23.87 C56.3624238,23.7166659 56.2890912,23.5133346 56.2890912,23.26 L56.2890912,10.64 C56.2890912,10.3866654 56.3624238,10.1833341 56.5090912,10.03 C56.6557586,9.8766659 56.8557566,9.8 57.1090912,9.8 C57.3624258,9.8 57.5624238,9.8766659 57.7090912,10.03 C57.8557586,10.1833341 57.9290912,10.3866654 57.9290912,10.64 L57.9290912,23.26 C57.9290912,23.5133346 57.8557586,23.7166659 57.7090912,23.87 C57.5624238,24.0233341 57.3624258,24.1 57.1090912,24.1 C56.8557566,24.1 56.6557586,24.0233341 56.5090912,23.87 Z M67.565455,23.29 C66.5921168,22.7099971 65.8421243,21.8766721 65.315455,20.79 C64.7887857,19.7033279 64.525455,18.4200074 64.525455,16.94 C64.525455,15.473326 64.7887857,14.1966721 65.315455,13.11 C65.8421243,12.0233279 66.5921168,11.1900029 67.565455,10.61 C68.5387932,10.0299971 69.692115,9.74 71.025455,9.74 C71.9187928,9.74 72.7621177,9.8833319 73.555455,10.17 C74.3487923,10.4566681 75.0387854,10.866664 75.625455,11.4 C75.8387894,11.600001 75.945455,11.833332 75.945455,12.1 C75.945455,12.2866676 75.8921222,12.4499993 75.785455,12.59 C75.6787878,12.7300007 75.5521224,12.8 75.405455,12.8 C75.2454542,12.8 75.0521228,12.7266674 74.825455,12.58 C74.1454516,12.046664 73.5287911,11.6733344 72.975455,11.46 C72.4221189,11.2466656 71.7854586,11.14 71.065455,11.14 C69.5187806,11.14 68.3287925,11.6433283 67.495455,12.65 C66.6621175,13.6566717 66.245455,15.0866574 66.245455,16.94 C66.245455,18.806676 66.6621175,20.2433283 67.495455,21.25 C68.3287925,22.2566717 69.5187806,22.76 71.065455,22.76 C71.7721252,22.76 72.4054522,22.6533344 72.965455,22.44 C73.5254578,22.2266656 74.1454516,21.853336 74.825455,21.32 C75.0521228,21.1733326 75.2454542,21.1 75.405455,21.1 C75.5521224,21.1 75.6787878,21.166666 75.785455,21.3 C75.8921222,21.433334 75.945455,21.599999 75.945455,21.8 C75.945455,22.066668 75.8387894,22.299999 75.625455,22.5 C75.0387854,23.033336 74.3487923,23.4433319 73.555455,23.73 C72.7621177,24.0166681 71.9187928,24.16 71.025455,24.16 C69.692115,24.16 68.5387932,23.8700029 67.565455,23.29 Z M94.1018187,23.4 C94.1018187,23.600001 94.0251528,23.766666 93.8718187,23.9 C93.7184846,24.033334 93.5351531,24.1 93.3218187,24.1 C92.9884837,24.1 92.7551527,23.9400016 92.6218187,23.62 L91.2018187,20.38 L83.6618187,20.38 L82.2218187,23.62 C82.0884847,23.9400016 81.8551537,24.1 81.5218187,24.1 C81.3084843,24.1 81.1218195,24.0300007 80.9618187,23.89 C80.8018179,23.7499993 80.7218187,23.580001 80.7218187,23.38 C80.7218187,23.2733328 80.7484851,23.1666672 80.8018187,23.06 L86.5218187,10.34 C86.6018191,10.1533324 86.7218179,10.0133338 86.8818187,9.92 C87.0418195,9.8266662 87.2151511,9.78 87.4018187,9.78 C87.6018197,9.78 87.7818179,9.8299995 87.9418187,9.93 C88.1018195,10.0300005 88.2218183,10.1666658 88.3018187,10.34 L94.0218187,23.06 C94.0751523,23.1666672 94.1018187,23.2799994 94.1018187,23.4 Z M84.2618187,19.02 L90.6018187,19.02 L87.4218187,11.84 L84.2618187,19.02 Z M100.288182,23.79 C100.134848,23.6499993 100.058182,23.4666678 100.058182,23.24 L100.058182,10.64 C100.058182,10.3866654 100.131515,10.1833341 100.278182,10.03 C100.42485,9.8766659 100.624848,9.8 100.878182,9.8 C101.131517,9.8 101.331515,9.8766659 101.478182,10.03 C101.62485,10.1833341 101.698182,10.3866654 101.698182,10.64 L101.698182,22.6 L108.158182,22.6 C108.398184,22.6 108.584848,22.6599994 108.718182,22.78 C108.851516,22.9000006 108.918182,23.0733322 108.918182,23.3 C108.918182,23.5266678 108.851516,23.6999994 108.718182,23.82 C108.584848,23.9400006 108.398184,24 108.158182,24 L100.858182,24 C100.631515,24 100.441517,23.9300007 100.288182,23.79 Z M126.92091,23.87 C126.767576,23.7166659 126.69091,23.5133346 126.69091,23.26 L126.69091,11.3 L122.39091,11.3 C122.150909,11.3 121.964244,11.2400006 121.83091,11.12 C121.697576,10.9999994 121.63091,10.8266678 121.63091,10.6 C121.63091,10.3733322 121.697576,10.2000006 121.83091,10.08 C121.964244,9.9599994 122.150909,9.9 122.39091,9.9 L132.65091,9.9 C132.890911,9.9 133.077576,9.9599994 133.21091,10.08 C133.344244,10.2000006 133.41091,10.3733322 133.41091,10.6 C133.41091,10.8266678 133.344244,10.9999994 133.21091,11.12 C133.077576,11.2400006 132.890911,11.3 132.65091,11.3 L128.35091,11.3 L128.35091,23.26 C128.35091,23.5133346 128.277577,23.7166659 128.13091,23.87 C127.984243,24.0233341 127.784245,24.1 127.53091,24.1 C127.277575,24.1 127.074244,24.0233341 126.92091,23.87 Z M140.207274,22.72 C139.260602,21.7599952 138.787274,20.346676 138.787274,18.48 L138.787274,10.64 C138.787274,10.3866654 138.860606,10.1833341 139.007274,10.03 C139.153941,9.8766659 139.353939,9.8 139.607274,9.8 C139.847275,9.8 140.040606,9.8766659 140.187274,10.03 C140.333941,10.1833341 140.407274,10.3866654 140.407274,10.64 L140.407274,18.62 C140.407274,19.9933402 140.743937,21.0266632 141.417274,21.72 C142.09061,22.4133368 143.080601,22.76 144.387274,22.76 C145.693947,22.76 146.680604,22.4133368 147.347274,21.72 C148.013944,21.0266632 148.347274,19.9933402 148.347274,18.62 L148.347274,10.64 C148.347274,10.3866654 148.42394,10.1833341 148.577274,10.03 C148.730608,9.8766659 148.927273,9.8 149.167274,9.8 C149.420608,9.8 149.620606,9.8766659 149.767274,10.03 C149.913941,10.1833341 149.987274,10.3866654 149.987274,10.64 L149.987274,18.48 C149.987274,20.3333426 149.510612,21.7433285 148.557274,22.71 C147.603936,23.6766715 146.21395,24.16 144.387274,24.16 C142.547265,24.16 141.153945,23.6800048 140.207274,22.72 Z M167.903637,23.44 C167.903637,23.640001 167.826972,23.8033327 167.673637,23.93 C167.520303,24.0566673 167.343638,24.12 167.143637,24.12 C166.836969,24.12 166.596972,23.986668 166.423637,23.72 L163.743637,19.48 C163.396969,18.9333306 163.036973,18.5566677 162.663637,18.35 C162.290302,18.1433323 161.783641,18.04 161.143637,18.04 L158.623637,18.04 L158.623637,23.26 C158.623637,23.5133346 158.550305,23.7166659 158.403637,23.87 C158.25697,24.0233341 158.063639,24.1 157.823637,24.1 C157.570303,24.1 157.370305,24.0233341 157.223637,23.87 C157.07697,23.7166659 157.003637,23.5133346 157.003637,23.26 L157.003637,10.7 C157.003637,10.4599988 157.080303,10.2666674 157.233637,10.12 C157.386972,9.9733326 157.590303,9.9 157.843637,9.9 L162.803637,9.9 C164.336978,9.9 165.506967,10.2399966 166.313637,10.92 C167.120308,11.6000034 167.523637,12.5999934 167.523637,13.92 C167.523637,15.0400056 167.200307,15.9399966 166.553637,16.62 C165.906968,17.3000034 164.983643,17.7133326 163.783637,17.86 C164.116972,17.9666672 164.416969,18.1399988 164.683637,18.38 C164.950305,18.6200012 165.216969,18.9533312 165.483637,19.38 L167.763637,22.98 C167.856971,23.1266674 167.903637,23.2799992 167.903637,23.44 Z M162.663637,16.68 C163.756976,16.68 164.573635,16.4533356 165.113637,16 C165.65364,15.5466644 165.923637,14.8600046 165.923637,13.94 C165.923637,13.0333288 165.656973,12.3600022 165.123637,11.92 C164.590301,11.4799978 163.77031,11.26 162.663637,11.26 L158.623637,11.26 L158.623637,16.68 L162.663637,16.68 Z M184.780001,23.34 C184.780001,23.5266676 184.703335,23.6966659 184.550001,23.85 C184.396667,24.0033341 184.220002,24.08 184.020001,24.08 C183.846667,24.08 183.666669,24.0000008 183.480001,23.84 L176.000001,17.3 L176.000001,23.26 C176.000001,23.5133346 175.926669,23.7166659 175.780001,23.87 C175.633334,24.0233341 175.433336,24.1 175.180001,24.1 C174.926667,24.1 174.726669,24.0233341 174.580001,23.87 C174.433334,23.7166659 174.360001,23.5133346 174.360001,23.26 L174.360001,10.64 C174.360001,10.3866654 174.433334,10.1833341 174.580001,10.03 C174.726669,9.8766659 174.926667,9.8 175.180001,9.8 C175.433336,9.8 175.633334,9.8766659 175.780001,10.03 C175.926669,10.1833341 176.000001,10.3866654 176.000001,10.64 L176.000001,16.38 L183.140001,10.04 C183.286669,9.8933326 183.46,9.82 183.660001,9.82 C183.860002,9.82 184.033334,9.8966659 184.180001,10.05 C184.326669,10.2033341 184.400001,10.3733324 184.400001,10.56 C184.400001,10.760001 184.313335,10.9466658 184.140001,11.12 L177.680001,16.8 L184.500001,22.76 C184.686669,22.9333342 184.780001,23.1266656 184.780001,23.34 Z" id="Logo" fill="#3F4796"></path>
                    <rect id="Rectangle" fill="#8A91FF" x="2" y="0" width="5" height="5"></rect>
                    <rect id="Rectangle" fill="#FFA9D9" x="12" y="0" width="5" height="5"></rect>
                    <rect id="Rectangle" fill="#FFA9D9" x="22" y="0" width="5" height="5"></rect>
                    <rect id="Rectangle" fill="#FFA9D9" x="32" y="0" width="5" height="5"></rect>
                    <rect id="Rectangle" fill="#FFA9D9" x="42" y="0" width="5" height="5"></rect>
                </g>
            </g>
        </g>
    </g>
</svg>