<?xml version="1.0" encoding="UTF-8"?>
<svg width="16px" height="16px" viewBox="0 0 16 16" version="1.1" xmlns="http://www.w3.org/2000/svg" xmlns:xlink="http://www.w3.org/1999/xlink">
    <!-- Generator: Sketch 47.1 (45422) - http://www.bohemiancoding.com/sketch -->
    <title>market-music</title>
    <desc>Created with Sketch.</desc>
    <defs></defs>
    <g id="Symbols" stroke="none" stroke-width="1" fill="none" fill-rule="evenodd">
        <g id="icons/market-music" fill-rule="nonzero" fill="#9FA4C9">
            <g id="market-music">
                <path d="M15,4 L12,4 L12,1 C12,0.448 11.552,0 11,0 L5,0 C4.448,0 4,0.448 4,1 L4,4 L1,4 C0.448,4 0,4.448 0,5 L0,15 C0,15.552 0.448,16 1,16 L15,16 C15.552,16 16,15.552 16,15 L16,5 C16,4.448 15.552,4 15,4 Z M6,2 L10,2 L10,4 L6,4 L6,2 Z M11,11.5 C11,12.328 10.328,13 9.5,13 C8.672,13 8,12.328 8,11.5 C8,10.672 8.672,10 9.5,10 C9.676,10 9.843,10.036 10,10.092 L10,8 L7,8 L7,11.5 C7,12.328 6.328,13 5.5,13 C4.672,13 4,12.328 4,11.5 C4,10.672 4.672,10 5.5,10 C5.676,10 5.843,10.036 6,10.092 L6,7 L11,7 L11,11.5 Z" id="Shape"></path>
            </g>
        </g>
    </g>
</svg>