<?xml version="1.0" encoding="UTF-8"?>
<svg width="24px" height="24px" viewBox="0 0 24 24" version="1.1" xmlns="http://www.w3.org/2000/svg" xmlns:xlink="http://www.w3.org/1999/xlink">
    <!-- Generator: Sketch 47.1 (45422) - http://www.bohemiancoding.com/sketch -->
    <title>star-filled</title>
    <desc>Created with Sketch.</desc>
    <defs></defs>
    <g id="musicalTurk-final" stroke="none" stroke-width="1" fill="none" fill-rule="evenodd">
        <g id="Batch-results-report---apple-guidelines" transform="translate(-652.000000, -439.000000)" stroke="#404994" fill="#404994">
            <g id="Group-5" transform="translate(259.000000, 199.000000)">
                <g id="Stacked-Group-2" transform="translate(65.000000, 241.000000)">
                    <g id="Stacked-Group">
                        <g id="form/data-quality" transform="translate(328.000000, 0.000000)">
                            <g id="Stacked-Group">
                                <path d="M11.5346589,18.7446443 L6.15226387,21.5743368 L6.15226387,21.5743368 C5.66341929,21.8313376 5.05879213,21.6433911 4.80179132,21.1545465 C4.69945225,20.959886 4.66413758,20.736918 4.70131442,20.5201603 L5.7292604,14.5267754 L5.7292604,14.5267754 C5.78489833,14.2023814 5.67734985,13.8713812 5.44166376,13.641644 L1.08721474,9.39710524 L1.08721474,9.39710524 C0.691731161,9.01160403 0.683638855,8.37849076 1.06914007,7.98300718 C1.22264867,7.82552355 1.42379108,7.72303637 1.64142811,7.69141186 L7.65912866,6.81698879 L7.65912866,6.81698879 C7.98483882,6.76966033 8.26640441,6.56509095 8.41206642,6.26994748 L11.1032639,0.816985751 L11.1032639,0.816985751 C11.3476862,0.321732091 11.9473121,0.118393092 12.4425657,0.362815385 C12.6397783,0.460145624 12.7994058,0.619773146 12.8967361,0.816985751 L15.5879336,6.26994748 L15.5879336,6.26994748 C15.7335956,6.56509095 16.0151612,6.76966033 16.3408713,6.81698879 L22.3585719,7.69141186 L22.3585719,7.69141186 C22.9051167,7.77082948 23.2837982,8.27827233 23.2043806,8.82481719 C23.1727561,9.04245422 23.0702689,9.24359663 22.9127853,9.39710524 L18.5583362,13.641644 L18.5583362,13.641644 C18.3226501,13.8713812 18.2151017,14.2023814 18.2707396,14.5267754 L19.2986856,20.5201603 L19.2986856,20.5201603 C19.3920466,21.0644968 19.0264588,21.5814527 18.4821223,21.6748137 C18.2653647,21.7119906 18.0423966,21.6766759 17.8477361,21.5743368 L12.4653411,18.7446443 L12.4653411,18.7446443 C12.1740171,18.5914862 11.8259829,18.5914862 11.5346589,18.7446443 Z" id="star-filled"></path>
                            </g>
                        </g>
                    </g>
                </g>
            </g>
        </g>
    </g>
</svg>
