<?xml version="1.0" encoding="UTF-8"?>
<svg width="20px" height="19px" viewBox="0 0 20 19" version="1.1" xmlns="http://www.w3.org/2000/svg" xmlns:xlink="http://www.w3.org/1999/xlink">
    <!-- Generator: Sketch 47.1 (45422) - http://www.bohemiancoding.com/sketch -->
    <title>star-empty</title>
    <desc>Created with Sketch.</desc>
    <defs></defs>
    <g id="Symbols" stroke="none" stroke-width="1" fill="none" fill-rule="evenodd">
        <g id="icons/star-empty" transform="translate(1.000000, 1.000000)" fill-rule="nonzero" fill="#404994">
            <path d="M8.31060704,14.3549829 C8.74293738,14.1312833 9.25693642,14.1312833 9.68926675,14.3549829 L13.7263247,16.4438672 C13.8234008,16.494097 13.934262,16.5111333 14.0419406,16.4923686 C14.3139831,16.4449608 14.4960855,16.1859953 14.4486778,15.9139528 L13.6854738,11.534415 C13.5997481,11.0424907 13.7644337,10.5401598 14.1247644,10.1944718 L17.3460188,7.10411918 C17.4266299,7.02678383 17.4790214,6.92468111 17.4948364,6.81409722 C17.5339306,6.54073619 17.3440199,6.28744112 17.0706589,6.24834683 L12.5907451,5.60765908 C12.1041742,5.53807292 11.6825667,5.23451757 11.4622422,4.79514239 L9.44689101,0.776093136 C9.39857476,0.679740021 9.32041503,0.601580287 9.22406191,0.553264043 C8.97721598,0.429483214 8.67676362,0.529247197 8.55298279,0.776093136 L6.53763163,4.79514239 C6.31730707,5.23451757 5.89569961,5.53807292 5.40912873,5.60765908 L0.929214873,6.24834683 C0.81863098,6.26416181 0.716528254,6.3165533 0.639192906,6.39716443 C0.448021578,6.59643343 0.454586039,6.91294785 0.65385504,7.10411918 L3.87510944,10.1944718 C4.23544013,10.5401598 4.40012567,11.0424907 4.31440004,11.534415 L3.55119598,15.9139528 C3.53243126,16.0216314 3.54946755,16.1324926 3.59969737,16.2295687 C3.72659949,16.4748246 4.02829319,16.5707693 4.2735491,16.4438672 L8.31060704,14.3549829 Z M4.73310234,17.3320174 C3.9973346,17.7127238 3.09225351,17.4248896 2.71154715,16.6891219 C2.56085768,16.3978937 2.50974882,16.0653101 2.56604296,15.7422742 L3.32924702,11.3627364 C3.35782223,11.1987617 3.30292705,11.031318 3.18281682,10.9160887 L-0.0384375784,7.82573607 C-0.636244581,7.25222209 -0.655937964,6.30267881 -0.0824239805,5.70487181 C0.149582063,5.46303841 0.455890242,5.30586394 0.787641921,5.258419 L5.26755577,4.61773125 C5.42974607,4.59453587 5.57028189,4.49335075 5.64372341,4.34689236 L7.65907457,0.327843102 C8.03041705,-0.412694715 8.93177413,-0.711986664 9.67231195,-0.340644177 C9.96137129,-0.195695447 10.1958505,0.0387837568 10.3407992,0.327843102 L12.3561504,4.34689236 C12.4295919,4.49335075 12.5701277,4.59453587 12.732318,4.61773125 L17.2122319,5.258419 C18.0323149,5.37570188 18.6020471,6.13558711 18.4847642,6.95567017 C18.4373192,7.28742185 18.2801448,7.59373003 18.0383114,7.82573607 L14.817057,10.9160887 C14.6969467,11.031318 14.6420516,11.1987617 14.6706268,11.3627364 L15.4338308,15.7422742 C15.576054,16.5584017 15.0297467,17.3352984 14.2136192,17.4775216 C13.8905833,17.5338157 13.5579997,17.4827069 13.2667715,17.3320174 L9.22971352,15.2431331 C9.0856034,15.1685666 8.91427039,15.1685666 8.77016028,15.2431331 L4.73310234,17.3320174 Z" id="star-empty"></path>
        </g>
    </g>
</svg>