<?xml version="1.0" encoding="UTF-8"?><!DOCTYPE svg PUBLIC "-//W3C//DTD SVG 1.1//EN" "http://www.w3.org/Graphics/SVG/1.1/DTD/svg11.dtd"><svg xmlns="http://www.w3.org/2000/svg"><symbol id="ico-check" viewBox="0 0 10 8">
    <title>
        checkIcon
    </title>
    <path d="M10 1.5L8.333 0 3.89 5 1.667 3 0 4.5 3.889 8z" fill-rule="evenodd"/>
</symbol><symbol id="ico-close" viewBox="0 0 14 14">
    <title>
        close
    </title>
    <g fill-rule="evenodd">
        <path d="M11.95.636l1.414 1.414L2.05 13.364.636 11.95z"/>
        <path d="M.636 2.05L2.05.636 13.364 11.95l-1.414 1.414z"/>
    </g>
</symbol><symbol id="ico-document" viewBox="0 0 22 24">
    <title>
        document
    </title>
    <g fill-rule="nonzero">
        <path d="M5 10h12v2H5z"/>
        <path d="M5 15h12v2H5z"/>
        <path d="M21 24H1a1 1 0 0 1-1-1V3a1 1 0 0 1 1-1h3v2H2v18h18V4h-2V2h3a1 1 0 0 1 1 1v20a1 1 0 0 1-1 1z"/>
        <path d="M15 0H7a1 1 0 0 0-1 1v4a1 1 0 0 0 1 1h2a2 2 0 1 1 4 0h2a1 1 0 0 0 1-1V1a1 1 0 0 0-1-1z"/>
    </g>
</symbol><symbol id="ico-download" viewBox="0 0 27 27">
    <title>
        download
    </title>
    <g fill-rule="nonzero">
        <path d="M26.943 16.703l-3.375-9.947A1.124 1.124 0 0 0 22.5 6h-2.25v2.21h1.439l2.625 7.737H2.684L5.31 8.211h1.44V6H4.5c-.485 0-.913.304-1.068.756L.057 16.703a1.088 1.088 0 0 0-.057.35v8.842C0 26.505.504 27 1.125 27h24.75c.621 0 1.125-.494 1.125-1.105v-8.842c0-.119-.02-.237-.057-.35zM22.5 22.58h-6.75v-2.21h6.75v2.21z"/>
        <path d="M14.625 0v6.545H18L13.5 12 9 6.545h3.375V0z"/>
    </g>
</symbol><symbol id="ico-drop-selector" viewBox="0 0 12 8">
    <title>
        drop-selector
    </title>
    <path d="M2 .586L.586 2 6 7.414 11.414 2 10 .586l-4 4z" fill-rule="nonzero"/>
</symbol><symbol id="ico-home" viewBox="0 0 15 16">
    <title>
        home
    </title>
    <path d="M10.264 16h1.874c.562 0 .987-.402.987-1.005V8h.887c.28-.038.562-.138.75-.34.374-.401.28-1.004-.094-1.406L8.109.226a.933.933 0 0 0-1.218 0L.332 6.254C-.043 6.656-.136 7.26.24 7.661c.093.2.417.339.699.339h.937v6.995c0 .603.331 1.005.893 1.005h1.874c.562 0 .983-.402.983-1.005v-3.014l3.75.019v2.995c0 .603.327 1.005.889 1.005z" fill-rule="evenodd"/>
</symbol><symbol id="ico-logo" viewBox="0 0 184 25">
    <title>
        logo
    </title>
    <g fill-rule="evenodd">
        <path d="M13.85 10.03c.14.153.21.357.21.61V23.3c0 .24-.067.433-.2.58-.133.147-.32.22-.56.22-.24 0-.42-.073-.54-.22-.12-.147-.18-.34-.18-.58V13.08L8.24 21.4c-.187.387-.46.58-.82.58-.347 0-.62-.193-.82-.58l-4.36-8.22V23.3c0 .24-.063.433-.19.58-.127.147-.31.22-.55.22-.24 0-.427-.073-.56-.22-.133-.147-.2-.34-.2-.58V10.64c0-.253.073-.457.22-.61.147-.153.347-.23.6-.23.333 0 .6.193.8.58l5.08 9.74 5.02-9.74c.107-.213.223-.363.35-.45a.777.777 0 0 1 .45-.13c.253 0 .45.077.59.23zm8.666 12.69c-.946-.96-1.42-2.373-1.42-4.24v-7.84c0-.253.074-.457.22-.61.147-.153.347-.23.6-.23.24 0 .434.077.58.23.147.153.22.357.22.61v7.98c0 1.373.337 2.407 1.01 3.1.674.693 1.664 1.04 2.97 1.04 1.307 0 2.294-.347 2.96-1.04.667-.693 1-1.727 1-3.1v-7.98c0-.253.077-.457.23-.61a.799.799 0 0 1 .59-.23c.254 0 .454.077.6.23.147.153.22.357.22.61v7.84c0 1.853-.476 3.263-1.43 4.23-.953.967-2.343 1.45-4.17 1.45-1.84 0-3.233-.48-4.18-1.44zm18.427.99c-.914-.3-1.644-.703-2.19-1.21a.918.918 0 0 1-.3-.7c0-.187.053-.35.16-.49.106-.14.233-.21.38-.21.173 0 .36.073.56.22 1.24.96 2.653 1.44 4.24 1.44 1.146 0 2.026-.22 2.64-.66.613-.44.92-1.067.92-1.88 0-.467-.147-.843-.44-1.13-.294-.287-.68-.517-1.16-.69-.48-.173-1.127-.353-1.94-.54-1.094-.253-1.99-.52-2.69-.8s-1.267-.68-1.7-1.2c-.434-.52-.65-1.2-.65-2.04 0-.8.216-1.51.65-2.13.433-.62 1.04-1.1 1.82-1.44.78-.34 1.67-.51 2.67-.51a7.74 7.74 0 0 1 2.61.43c.806.287 1.483.697 2.03 1.23.213.213.32.447.32.7 0 .187-.054.35-.16.49-.107.14-.234.21-.38.21-.147 0-.34-.073-.58-.22-.654-.533-1.26-.907-1.82-1.12-.56-.213-1.234-.32-2.02-.32-1.107 0-1.967.23-2.58.69-.614.46-.92 1.103-.92 1.93 0 .707.27 1.237.81 1.59s1.37.663 2.49.93c1.213.293 2.166.563 2.86.81.693.247 1.27.617 1.73 1.11.46.493.69 1.153.69 1.98 0 .787-.217 1.48-.65 2.08-.434.6-1.044 1.067-1.83 1.4-.787.333-1.687.5-2.7.5-1 0-1.957-.15-2.87-.45zm14.566.16c-.147-.153-.22-.357-.22-.61V10.64c0-.253.073-.457.22-.61.147-.153.347-.23.6-.23s.453.077.6.23c.147.153.22.357.22.61v12.62c0 .253-.073.457-.22.61-.147.153-.347.23-.6.23s-.453-.077-.6-.23zm11.056-.58c-.973-.58-1.723-1.413-2.25-2.5-.526-1.087-.79-2.37-.79-3.85 0-1.467.264-2.743.79-3.83.527-1.087 1.277-1.92 2.25-2.5.974-.58 2.127-.87 3.46-.87.894 0 1.737.143 2.53.43a6.142 6.142 0 0 1 2.07 1.23c.214.2.32.433.32.7 0 .187-.053.35-.16.49-.106.14-.233.21-.38.21-.16 0-.353-.073-.58-.22-.68-.533-1.296-.907-1.85-1.12-.553-.213-1.19-.32-1.91-.32-1.546 0-2.736.503-3.57 1.51-.833 1.007-1.25 2.437-1.25 4.29 0 1.867.417 3.303 1.25 4.31.834 1.007 2.024 1.51 3.57 1.51.707 0 1.34-.107 1.9-.32.56-.213 1.18-.587 1.86-1.12.227-.147.42-.22.58-.22.147 0 .274.067.38.2.107.133.16.3.16.5 0 .267-.106.5-.32.7a6.142 6.142 0 0 1-2.07 1.23 7.387 7.387 0 0 1-2.53.43c-1.333 0-2.486-.29-3.46-.87zm26.537.11c0 .2-.077.367-.23.5a.81.81 0 0 1-.55.2c-.334 0-.567-.16-.7-.48l-1.42-3.24h-7.54l-1.44 3.24c-.134.32-.367.48-.7.48-.214 0-.4-.07-.56-.21a.654.654 0 0 1-.24-.51.71.71 0 0 1 .08-.32l5.72-12.72c.08-.187.2-.327.36-.42.16-.093.333-.14.52-.14.2 0 .38.05.54.15.16.1.28.237.36.41l5.72 12.72a.75.75 0 0 1 .08.34zm-9.84-4.38h6.34l-3.18-7.18-3.16 7.18zm16.026 4.77a.71.71 0 0 1-.23-.55v-12.6c0-.253.074-.457.22-.61.147-.153.347-.23.6-.23.254 0 .454.077.6.23.147.153.22.357.22.61V22.6h6.46c.24 0 .427.06.56.18.134.12.2.293.2.52 0 .227-.066.4-.2.52-.133.12-.32.18-.56.18h-7.3a.814.814 0 0 1-.57-.21zm26.633.08c-.153-.153-.23-.357-.23-.61V11.3h-4.3c-.24 0-.427-.06-.56-.18-.133-.12-.2-.293-.2-.52 0-.227.067-.4.2-.52s.32-.18.56-.18h10.26c.24 0 .427.06.56.18.133.12.2.293.2.52 0 .227-.067.4-.2.52s-.32.18-.56.18h-4.3v11.96c0 .253-.073.457-.22.61-.147.153-.347.23-.6.23s-.457-.077-.61-.23zm13.286-1.15c-.946-.96-1.42-2.373-1.42-4.24v-7.84c0-.253.074-.457.22-.61.147-.153.347-.23.6-.23.24 0 .434.077.58.23.147.153.22.357.22.61v7.98c0 1.373.337 2.407 1.01 3.1.674.693 1.664 1.04 2.97 1.04 1.307 0 2.294-.347 2.96-1.04.667-.693 1-1.727 1-3.1v-7.98c0-.253.077-.457.23-.61a.799.799 0 0 1 .59-.23c.254 0 .454.077.6.23.147.153.22.357.22.61v7.84c0 1.853-.476 3.263-1.43 4.23-.953.967-2.343 1.45-4.17 1.45-1.84 0-3.233-.48-4.18-1.44zm27.697.72c0 .2-.077.363-.23.49a.808.808 0 0 1-.53.19.815.815 0 0 1-.72-.4l-2.68-4.24c-.347-.547-.707-.923-1.08-1.13-.374-.207-.88-.31-1.52-.31h-2.52v5.22c0 .253-.074.457-.22.61a.766.766 0 0 1-.58.23c-.254 0-.454-.077-.6-.23-.147-.153-.22-.357-.22-.61V10.7c0-.24.076-.433.23-.58.153-.147.356-.22.61-.22h4.96c1.533 0 2.703.34 3.51 1.02.806.68 1.21 1.68 1.21 3 0 1.12-.324 2.02-.97 2.7-.647.68-1.57 1.093-2.77 1.24.333.107.633.28.9.52.266.24.533.573.8 1l2.28 3.6c.093.147.14.3.14.46zm-5.24-6.76c1.093 0 1.91-.227 2.45-.68.54-.453.81-1.14.81-2.06 0-.907-.267-1.58-.8-2.02-.534-.44-1.354-.66-2.46-.66h-4.04v5.42h4.04zm22.116 6.66a.707.707 0 0 1-.23.51.728.728 0 0 1-.53.23c-.173 0-.353-.08-.54-.24L175 17.3v5.96c0 .253-.073.457-.22.61-.147.153-.347.23-.6.23s-.453-.077-.6-.23c-.147-.153-.22-.357-.22-.61V10.64c0-.253.073-.457.22-.61.147-.153.347-.23.6-.23s.453.077.6.23c.147.153.22.357.22.61v5.74l7.14-6.34a.711.711 0 0 1 1.04.01c.147.153.22.323.22.51 0 .2-.087.387-.26.56l-6.46 5.68 6.82 5.96c.187.173.28.367.28.58z"/>
        <path d="M1 0h5v5H1z"/>
        <path d="M11 0h5v5h-5z"/>
        <path d="M21 0h5v5h-5z"/>
        <path d="M31 0h5v5h-5z"/>
        <path d="M41 0h5v5h-5z"/>
    </g>
</symbol><symbol id="ico-market-music" viewBox="0 0 16 16">
    <title>
        market-music
    </title>
    <path d="M15 4h-3V1a1 1 0 0 0-1-1H5a1 1 0 0 0-1 1v3H1a1 1 0 0 0-1 1v10a1 1 0 0 0 1 1h14a1 1 0 0 0 1-1V5a1 1 0 0 0-1-1zM6 2h4v2H6V2zm5 9.5A1.5 1.5 0 1 1 9.5 10c.176 0 .343.036.5.092V8H7v3.5A1.5 1.5 0 1 1 5.5 10c.176 0 .343.036.5.092V7h5v4.5z" fill-rule="nonzero"/>
</symbol><symbol id="ico-star-empty" viewBox="0 0 20 19">
    <title>
        star-empty
    </title>
    <path d="M9.31 15.355a1.5 1.5 0 0 1 1.38 0l4.036 2.089a.5.5 0 0 0 .723-.53l-.764-4.38a1.5 1.5 0 0 1 .44-1.34l3.221-3.09a.5.5 0 0 0-.275-.856l-4.48-.64a1.5 1.5 0 0 1-1.129-.813l-2.015-4.019a.5.5 0 0 0-.894 0l-2.015 4.02a1.5 1.5 0 0 1-1.129.812l-4.48.64a.5.5 0 0 0-.275.856l3.221 3.09a1.5 1.5 0 0 1 .44 1.34l-.764 4.38a.5.5 0 0 0 .723.53l4.037-2.089zm-3.577 2.977a1.5 1.5 0 0 1-2.167-1.59l.763-4.38a.5.5 0 0 0-.146-.446L.962 8.826a1.5 1.5 0 0 1 .826-2.568l4.48-.64a.5.5 0 0 0 .376-.271l2.015-4.02a1.5 1.5 0 0 1 2.682 0l2.015 4.02a.5.5 0 0 0 .376.27l4.48.641a1.5 1.5 0 0 1 .826 2.568l-3.22 3.09a.5.5 0 0 0-.147.447l.763 4.38a1.5 1.5 0 0 1-2.167 1.589l-4.037-2.089a.5.5 0 0 0-.46 0l-4.037 2.089z" fill-rule="nonzero"/>
</symbol><symbol id="ico-star-filled" viewBox="0 0 24 24">
    <title>
        star-filled
    </title>
    <path d="M11.535 19.745l-5.383 2.83a1 1 0 0 1-1.45-1.055l1.027-5.993a1 1 0 0 0-.287-.885l-4.355-4.245a1 1 0 0 1 .554-1.706l6.018-.874a1 1 0 0 0 .753-.547l2.691-5.453a1 1 0 0 1 1.794 0l2.69 5.453a1 1 0 0 0 .754.547l6.018.874a1 1 0 0 1 .554 1.706l-4.355 4.245a1 1 0 0 0-.287.885l1.028 5.993a1 1 0 0 1-1.451 1.054l-5.383-2.83a1 1 0 0 0-.93 0z" fill-rule="evenodd"/>
</symbol><symbol id="ico-upload" viewBox="0 0 16 22">
    <title>
        upload
    </title>
    <path d="M6 22V10H0L8 0l8 10h-6v12z" fill-rule="nonzero"/>
</symbol></svg>